<svg id="Layer_1" data-name="Layer 1" xmlns="https://www.w3.org/2000/svg" viewBox="0 0 950 950"><defs><style>.cls-1{fill:none;stroke:#f6b319;stroke-miterlimit:10;}.cls-2{fill:#6b4b2c;}.cls-3{fill:#f6b319;}</style></defs><title>Primal_Logo</title><path class="cls-1" d="M77.71,500" transform="translate(-25 -25)"/><path class="cls-2" d="M291.79,123.28c-1.12-2.24-3-3-5.28-1.84L281,124.21l-3.69-7.39s6.74-4.16,19.78-11,17.13-8.52,17.13-8.52c14.67-7.32,26-6.74,32.08,5.51S346,124,329.57,132.25l-9.84,4.91,7,14.54c1.19,2.2,3.13,2.85,5.33,1.66l5.89-3.19,4.19,7.74s-5.3,2.31-17.66,8.94-17,9.8-17,9.8l-4.18-7.74,5.36-2.9c2.2-1.19,2.72-3.17,1.53-5.37Zm24,6,7.69-3.84c6.27-3.13,8.77-8.62,6-14.17a9.71,9.71,0,0,0-13.55-4.53l-9.13,4.56Z" transform="translate(-25 -25)"/><path class="cls-2" d="M361.8,91.43c-.63-2.42-2.36-3.52-4.78-2.88l-6,1.57L349.18,83s7.12-2.66,20.55-6.87,23.71-6.56,23.71-6.56C407,66.06,416.34,69.66,419,80c2.4,9.19-2.71,15-10.81,18.32l.05.19c7.78.14,12.45,1.4,14.52,9.33L425.44,118c.48,1.84,1.54,3.11,4.15,2.43s2.41-3.83,1.63-6.83l-1-3.87,6.48-1.69.86,3.29c2.45,9.38,1,17.4-11.45,20.65-9.19,2.4-16.57-.53-19.51-11.85l-2.07-7.93c-1.52-5.8-2.83-6.9-10.67-4.86l-7.93,2.07L390.26,126c.63,2.42,2.47,3.84,4.84,3.05l5.87-2,2.93,8.76s-8.09,1.92-19.78,5.79-17.24,6.11-17.24,6.11l-2.79-8.34,5.78-1.93c2.37-.79,2.83-4.31,2.2-6.73Zm21.89,9.47L393,98.48c7.16-1.87,10.33-4.35,8.31-12.08-1.87-7.16-6.46-7.71-15.35-5.39l-7,1.82Z" transform="translate(-25 -25)"/><path class="cls-2" d="M480.77,66.08l-6.18.52c-2.5.21-3.85.73-3.56,4.31l3.42,40.57c.21,2.49,1.73,3.87,4.22,3.66l6.08-.51.74,8.77-38.67,3.26-.74-8.77,6.08-.51c2.49-.21,3.76-1.82,3.55-4.31l-3.54-42c-.14-1.7-1.61-2.47-4.1-2.26l-6.18.52-.74-8.77s10.9-1.48,19.54-2.15S480,57.31,480,57.31Z" transform="translate(-25 -25)"/><path class="cls-2" d="M653,146.43c-3.27-1.26-4.07-3.07-3.75-9.47l-.12-54.39a72.34,72.34,0,0,0-8.66-3.24c-7-2.35-9.74-3-9.74-3l-32.33,42.77c-3.84,5.14-6.39,7-12.93,5.58s-7.7-5.12-7.44-7.61l4.27-40.47c.26-2.49,1.81-3.83,4.3-3.57l5.47.58.75-7.12s-8.53-2-19-3.62-16-2.2-16-2.2l-16.19,39.68-.2,0-7.16-41.67a147.33,147.33,0,0,0-17.36-1.58c-11.48-.52-18.81-.47-18.81-.47l-.74,7,6,.63c2.49.26,3.72,1.9,3.45,4.39l-5,42.29c0,2.5-1.41,4-3.91,4h-6l0,8.8H506.7l14,.48v-8.8l-4.19-.44c-2.5,0-3.9-1.51-3.89-4l5.23-43.65.2,0,9.63,57.32,14.52,1.53,21.39-53,.2,0-4.43,42c-.26,2.49-1.81,3.83-4.3,3.57l-4.18-.44-.93,8.75s10.73.95,30.35,5,31.07,8.43,31.07,8.43l2.74-8.13-2.75-.93c-2.55-.86-5.77-2.26-5.27-3.78.45-1.33,1.31-2.62,3.47-5.58l2.41-3.41,19.32,6.52.13,7.56a7.93,7.93,0,0,1-.83,3.54c-.61,1-2.87.5-5.67-.57l-2.8-1.08L619,142.77s9.75,3.35,16.36,5.86S653,155.86,653,155.86l3.16-8.21Zm-35.48-35.25,13.6-18.09.19.06,0,22.66Z" transform="translate(-25 -25)"/><path class="cls-2" d="M654,156.39l4.25-7.7,5.34,2.95c2.19,1.21,4.14.57,5.35-1.62l20.4-36c1.24-2.18.76-4.17-1.42-5.4l-5.4-3.05,4.34-7.66s7.1,3.15,17.19,8.42,17.43,9.56,17.43,9.56l-5,8.88-5.4-3.05c-2.17-1.23-4.13-.62-5.36,1.56l-22.23,39.29,9.54,5.26c10.5,5.79,15.88,0,21.1-9.48l8.14,4.49-13.18,23.9a260.41,260.41,0,0,0-30.4-18.11C659.93,159,654,156.39,654,156.39Z" transform="translate(-25 -25)"/><path class="cls-3" d="M975,499.94A474.89,474.89,0,0,0,500.12,25h-.18A474.89,474.89,0,0,0,25,499.88v.2A474.89,474.89,0,0,0,499.88,975h.18A474.89,474.89,0,0,0,975,500.19h0v-.05h0V500h0v-.08ZM884.59,759.37A463.17,463.17,0,0,1,500.06,963.84h-.18A463.49,463.49,0,0,1,36.16,500.08V500h0v-.11A463.49,463.49,0,0,1,499.94,36.16h.18A463.49,463.49,0,0,1,963.84,499.94v.19A462,462,0,0,1,884.59,759.37Z" transform="translate(-25 -25)"/><path class="cls-3" d="M857.2,500a357.2,357.2,0,1,0-714.4,0h0a357.2,357.2,0,1,0,714.4,0ZM818.87,634.68A347.57,347.57,0,0,1,693.43,787a346.72,346.72,0,0,1-328.1,31.89A347.58,347.58,0,0,1,213,693.43a346.72,346.72,0,0,1-31.9-328.1A347.61,347.61,0,0,1,306.57,213a346.72,346.72,0,0,1,328.11-31.89A347.58,347.58,0,0,1,787,306.57a346.71,346.71,0,0,1,31.89,328.1Z" transform="translate(-25 -25)"/><path class="cls-2" d="M299.12,830.23,294,826.66c-2.06-1.44-3.45-1.91-5.53,1.07l-23,32.93c-1.41,2.09-1.08,4.13,1,5.54l5.1,3.44-5,7.35s-8.45-5.38-18-11.9-14.38-10-14.38-10l5-7.35,5.09,3.44c2.09,1.41,4.1.95,5.51-1.14l24-34.3c1-1.41.34-3-1.73-4.39l-5.13-3.57,5.06-7.28s5.73,4.58,15.69,11.12,16.88,10.89,16.88,10.89Z" transform="translate(-25 -25)"/><path class="cls-2" d="M363.05,851.92l8.26,3.75-11.35,25-8.53-3.88c4.3-9.46,2.78-19.78-7.59-24.49-10.18-4.63-19,.21-26.46,16.55-6.59,14.5-7.22,25.4,5.63,31.24,9.63,4.38,18.4-1.27,22.29-9.81l8.53,3.88c-8,16.76-21.66,20.39-38.65,12.67-19-8.64-27.47-25.56-17.71-47,8.84-19.46,28-26.13,45.85-18,4.59,2.09,13.27,8.8,15.56,14.49Z" transform="translate(-25 -25)"/><path class="cls-2" d="M387.8,874.24c.58-2.45-.44-4.25-2.89-4.83L378.83,868l2.32-9.69s5.61,2.7,27.64,7.76,37.61,7.5,37.61,7.5l-6.26,26.25L431,897.6c3.37-14.12-1.61-17.58-14.16-20.57l-9.7-2.31-4.31,18.08,3,.72c5.68,1.35,8.28-.41,9.73-6.48l.51-2.16,8.14,1.94-7.06,29.6-8.13-1.94.56-2.35c.87-3.63.57-8.46-3-9.31l-5.88-1.4-4.71,19.65,12,2.85c10.3,2.45,16,3,19.75-12.79l9.12,2.17-6,25.18s-16.46-3.3-33.83-7.21S365.8,923,365.8,923l2.06-8.63,6,1.43c2.45.58,4.17-.56,4.76-3Z" transform="translate(-25 -25)"/><path class="cls-2" d="M456.8,940.54l.28-8,6.14.21c2.52.09,4-1.38,4.07-3.9l1.24-40.63c.16-2.51-1.16-4.11-3.68-4.27l-6.24-.39.56-8.86s6.26.62,20,1.38l19.25,1.07-.56,8.86-6.24-.39c-2.51-.16-4,1.27-4.17,3.78l-1.36,44.13,11,.38c12.09.42,14.28-6.37,14.65-17.25l9.37.32-.93,25.84s-17.28.49-33.75-.11S456.8,940.54,456.8,940.54Z" transform="translate(-25 -25)"/><path class="cls-2" d="M568.77,871.36l23.53,46.42c3.12,5.67,4.77,6.79,8.24,6.14l3.37-.64,1.55,8.21s-7.29,1.8-19.3,4-16.86,2.8-16.86,2.8l-1.55-8.22,3-.56c3-.56,5.37-1.42,5.17-2.52a13.56,13.56,0,0,0-1.17-3.47l-3-7.27-20.33,3.09-.59,4.17a23,23,0,0,0-.15,6.88c.15,1.61,3.7,1.58,6.4,1.32l2.91-.28.76,8.07-15.84,1.67-13.67,1.11-.76-8.05,3.41-.32c3.51-.33,4.52-1.47,5.59-7.85l8.93-51.65a67.05,67.05,0,0,0,10.49-1.3C566.51,871.8,568.77,871.36,568.77,871.36Zm-15.85,38.82,14.45-2.2-10.44-20.34-.2,0Z" transform="translate(-25 -25)"/><path class="cls-2" d="M668,887.57l.19-.07-11.36-30.83c-1-2.29-2.95-3.09-5.24-2l-5.6,2.54-3.67-8.07S647,847.54,657,843s13.59-6.74,13.59-6.74l3.67,8.08-5.5,2.5c-2.29,1-3,3-1.91,5.29l19.09,50.79-9.49,3.87-9.06,3.81-45.08-36-.19.06,13.41,33.82c.77,2.4,2.58,3.4,5,2.63l5.85-1.88,2.71,8.44s-5,2-14.7,5.08-14.94,4.46-14.94,4.46l-2.72-8.45,5.85-1.88c2.39-.77,3.28-2.64,2.51-5L610.38,874c-.76-2.4-2.56-3.41-5-2.65l-6,1.89-2.68-8.45s7.92-1.79,17.27-4.93,13.66-4.88,13.66-4.88Z" transform="translate(-25 -25)"/><path class="cls-2" d="M694.65,837.55c-1.32-2.15-3.31-2.7-5.46-1.39L684,839.32l-4.63-7.57L710.87,813c19.51-11.95,37.35-11.18,49.88,9.28,12,19.59,4.52,35-15.76,47.38l-15.85,10.08-14.83,8.66-4.63-7.56,5.07-3.11c2.15-1.31,2.56-3.34,1.24-5.49Zm40,28.91,4-2.42c11.35-7,14.08-14.06,3.66-31.08s-17.94-17.73-29.29-10.78l-4,2.42Z" transform="translate(-25 -25)"/><path class="cls-2" d="M182.15,746a389.93,389.93,0,0,1,29.51-523.69l-7.82-8A401.08,401.08,0,0,0,173.48,753l8.67-7Z" transform="translate(-25 -25)"/><path class="cls-2" d="M818.09,746a389.93,389.93,0,0,0-29.51-523.69l7.82-8A401.08,401.08,0,0,1,826.76,753l-8.67-7Z" transform="translate(-25 -25)"/><polygon class="cls-2" points="521.03 434.54 475.06 456.56 427.58 436.23 396.93 469.01 415.59 485.11 445.88 460.29 469.16 469.01 475.05 495.03 475.06 495.03 480.95 469.01 504.23 460.29 534.52 485.23 553.18 469.01 521.03 434.54"/><path class="cls-2" d="M500,202.34c-164.39,0-297.66,133.27-297.66,297.66S335.61,797.66,500,797.66,797.66,664.39,797.66,500,664.39,202.34,500,202.34Zm10.41,504.91a14.65,14.65,0,0,1-20.72,0L420.34,637.9H579.77ZM596.29,622H403.82a2.92,2.92,0,0,1-2.74-3.95l37.05-89.51c.46-1.1.68-2.15-.15-2.77l-33.06-26.63c-1.87-1.68-.71-4.54.8-6.27l41.54-46.54a5.26,5.26,0,0,1,6.09-1.34l43.46,19.31h0a7.88,7.88,0,0,0,6.44,0h0L546.75,445a5.25,5.25,0,0,1,6.09,1.34l41.39,46.46c2,2.35,2.61,4.79.81,6.27l-32.91,26.72a2.37,2.37,0,0,0-.14,2.77L599,618.09A2.92,2.92,0,0,1,596.29,622Zm94.19-200.66-67.3,54.78-.66-.69,43-47.78a4.32,4.32,0,0,0-.54-6.29l-62.11-47.46a3.72,3.72,0,0,0-4.68.07l-91.74,76.45a12.18,12.18,0,0,1-12.81,0L401.91,374a3.72,3.72,0,0,0-4.68-.07L335,421.57a4.32,4.32,0,0,0-.54,6.29l43,47.78-.66.69-67.31-54.78a8.66,8.66,0,0,1-.28-13.19l88.06-78a4,4,0,0,1,4.89-.35l94.41,62.07a4.57,4.57,0,0,0,1.83.65,10.59,10.59,0,0,0,1.61.14,11.66,11.66,0,0,0,1.66-.14,4.63,4.63,0,0,0,1.83-.65L597.93,330a4,4,0,0,1,4.89.35l87.95,77.78A8.66,8.66,0,0,1,690.48,421.38Z" transform="translate(-25 -25)"/></svg>